<svg xmlns="http://www.w3.org/2000/svg" xmlns:svg="http://www.w3.org/2000/svg" id="svg5" width="84.553" height="39.615" version="1.1" viewBox="0 0 22.371 10.481"><g id="layer1" transform="translate(-845.55364,153.58699)"><g id="g1756" transform="matrix(0.01444414,0,0,0.01444414,845.53293,-151.14505)"><path id="path1694" style="fill:red;stroke-width:31.465;stroke-linecap:round;stroke-linejoin:round;paint-order:stroke fill markers" d="m 34.970869,38.729679 11.945199,36.758812 38.650978,0.0015 L 54.298608,98.209614 66.241024,134.96933 34.970867,112.25204 3.7007081,134.96933 15.643126,98.209613 -15.625311,75.489953 23.025667,75.48849 Z" transform="matrix(1.771561,0,0,1.771561,1300.6753,-170.45867)"/><path id="path1676" style="fill:red;stroke-width:31.465;stroke-linecap:round;stroke-linejoin:round;paint-order:stroke fill markers" d="m 34.970869,38.729679 11.945199,36.758812 38.650978,0.0015 L 54.298608,98.209614 66.241024,134.96933 34.970867,112.25204 3.7007081,134.96933 15.643126,98.209613 -15.625311,75.489953 23.025667,75.48849 Z" transform="matrix(1.771561,0,0,1.771561,1142.133,-221.9722)"/><path id="path1678" style="fill:red;stroke-width:31.465;stroke-linecap:round;stroke-linejoin:round;paint-order:stroke fill markers" d="m 34.970869,38.729679 11.945199,36.758812 38.650978,0.0015 L 54.298608,98.209614 66.241024,134.96933 34.970867,112.25204 3.7007081,134.96933 15.643126,98.209613 -15.625311,75.489953 23.025667,75.48849 Z" transform="matrix(1.771561,0,0,1.771561,983.59064,-170.45868)"/><path id="path1680" style="fill:red;stroke-width:31.465;stroke-linecap:round;stroke-linejoin:round;paint-order:stroke fill markers" d="m 34.970869,38.729679 11.945199,36.758812 38.650978,0.0015 L 54.298608,98.209614 66.241024,134.96933 34.970867,112.25204 3.7007081,134.96933 15.643126,98.209613 -15.625311,75.489953 23.025667,75.48849 Z" transform="matrix(1.771561,0,0,1.771561,885.60611,-35.594543)"/><path id="path1682" style="fill:red;stroke-width:31.465;stroke-linecap:round;stroke-linejoin:round;paint-order:stroke fill markers" d="m 34.970869,38.729679 11.945199,36.758812 38.650978,0.0015 L 54.298608,98.209614 66.241024,134.96933 34.970867,112.25204 3.7007081,134.96933 15.643126,98.209613 -15.625311,75.489953 23.025667,75.48849 Z" transform="matrix(1.771561,0,0,1.771561,885.60611,131.1067)"/><path id="path1684" style="fill:red;stroke-width:31.465;stroke-linecap:round;stroke-linejoin:round;paint-order:stroke fill markers" d="m 34.970869,38.729679 11.945199,36.758812 38.650978,0.0015 L 54.298608,98.209614 66.241024,134.96933 34.970867,112.25204 3.7007081,134.96933 15.643126,98.209613 -15.625311,75.489953 23.025667,75.48849 Z" transform="matrix(1.771561,0,0,1.771561,983.59063,265.97084)"/><path id="path1686" style="fill:red;stroke-width:31.465;stroke-linecap:round;stroke-linejoin:round;paint-order:stroke fill markers" d="m 34.970869,38.729679 11.945199,36.758812 38.650978,0.0015 L 54.298608,98.209614 66.241024,134.96933 34.970867,112.25204 3.7007081,134.96933 15.643126,98.209613 -15.625311,75.489953 23.025667,75.48849 Z" transform="matrix(1.771561,0,0,1.771561,1142.133,317.48436)"/><path id="path1688" style="fill:red;stroke-width:31.465;stroke-linecap:round;stroke-linejoin:round;paint-order:stroke fill markers" d="m 34.970869,38.729679 11.945199,36.758812 38.650978,0.0015 L 54.298608,98.209614 66.241024,134.96933 34.970867,112.25204 3.7007081,134.96933 15.643126,98.209613 -15.625311,75.489953 23.025667,75.48849 Z" transform="matrix(1.771561,0,0,1.771561,1300.6753,265.97085)"/><path id="path1690" style="fill:red;stroke-width:31.465;stroke-linecap:round;stroke-linejoin:round;paint-order:stroke fill markers" d="m 34.970869,38.729679 11.945199,36.758812 38.650978,0.0015 L 54.298608,98.209614 66.241024,134.96933 34.970867,112.25204 3.7007081,134.96933 15.643126,98.209613 -15.625311,75.489953 23.025667,75.48849 Z" transform="matrix(1.771561,0,0,1.771561,1398.6598,131.10671)"/><path id="path1692" style="fill:red;stroke-width:31.465;stroke-linecap:round;stroke-linejoin:round;paint-order:stroke fill markers" d="m 34.970869,38.729679 11.945199,36.758812 38.650978,0.0015 L 54.298608,98.209614 66.241024,134.96933 34.970867,112.25204 3.7007081,134.96933 15.643126,98.209613 -15.625311,75.489953 23.025667,75.48849 Z" transform="matrix(1.771561,0,0,1.771561,1398.6598,-32.118561)"/></g><g id="g1768" transform="matrix(0.01444414,0,0,0.01444414,846.14937,-151.9071)"><path style="fill:red;stroke:none;stroke-width:31.465;stroke-linecap:round;stroke-linejoin:round;paint-order:stroke fill markers" id="path900" d="m 34.970869,38.729679 11.945199,36.758812 38.650978,0.0015 L 54.298608,98.209614 66.241024,134.96933 34.970867,112.25204 3.7007081,134.96933 15.643126,98.209613 -15.625311,75.489953 23.025667,75.48849 Z" transform="matrix(1.771561,0,0,1.771561,242.96435,-184.91469)"/><path style="fill:red;stroke:none;stroke-width:31.465;stroke-linecap:round;stroke-linejoin:round;paint-order:stroke fill markers" id="path902" d="m 34.970869,38.729679 11.945199,36.758812 38.650978,0.0015 L 54.298608,98.209614 66.241024,134.96933 34.970867,112.25204 3.7007081,134.96933 15.643126,98.209613 -15.625311,75.489953 23.025667,75.48849 Z" transform="matrix(1.771561,0,0,1.771561,84.422025,-133.40117)"/><path style="fill:red;stroke:none;stroke-width:31.465;stroke-linecap:round;stroke-linejoin:round;paint-order:stroke fill markers" id="path904" d="m 34.970869,38.729679 11.945199,36.758812 38.650978,0.0015 L 54.298608,98.209614 66.241024,134.96933 34.970867,112.25204 3.7007081,134.96933 15.643126,98.209613 -15.625311,75.489953 23.025667,75.48849 Z" transform="matrix(1.771561,0,0,1.771561,-13.562502,1.4629704)"/><path style="fill:red;stroke:none;stroke-width:31.465;stroke-linecap:round;stroke-linejoin:round;paint-order:stroke fill markers" id="path906" d="m 34.970869,38.729679 11.945199,36.758812 38.650978,0.0015 L 54.298608,98.209614 66.241024,134.96933 34.970867,112.25204 3.7007081,134.96933 15.643126,98.209613 -15.625311,75.489953 23.025667,75.48849 Z" transform="matrix(1.771561,0,0,1.771561,-13.562507,168.16421)"/><path style="fill:red;stroke:none;stroke-width:31.465;stroke-linecap:round;stroke-linejoin:round;paint-order:stroke fill markers" id="path908" d="m 34.970869,38.729679 11.945199,36.758812 38.650978,0.0015 L 54.298608,98.209614 66.241024,134.96933 34.970867,112.25204 3.7007081,134.96933 15.643126,98.209613 -15.625311,75.489953 23.025667,75.48849 Z" transform="matrix(1.771561,0,0,1.771561,84.422015,303.02835)"/><path style="fill:red;stroke:none;stroke-width:31.465;stroke-linecap:round;stroke-linejoin:round;paint-order:stroke fill markers" id="path910" d="m 34.970869,38.729679 11.945199,36.758812 38.650978,0.0015 L 54.298608,98.209614 66.241024,134.96933 34.970867,112.25204 3.7007081,134.96933 15.643126,98.209613 -15.625311,75.489953 23.025667,75.48849 Z" transform="matrix(1.771561,0,0,1.771561,242.96434,354.54187)"/><path style="fill:red;stroke:none;stroke-width:31.465;stroke-linecap:round;stroke-linejoin:round;paint-order:stroke fill markers" id="path912" d="m 34.970869,38.729679 11.945199,36.758812 38.650978,0.0015 L 54.298608,98.209614 66.241024,134.96933 34.970867,112.25204 3.7007081,134.96933 15.643126,98.209613 -15.625311,75.489953 23.025667,75.48849 Z" transform="matrix(1.771561,0,0,1.771561,401.50664,303.02836)"/><path style="fill:red;stroke:none;stroke-width:31.465;stroke-linecap:round;stroke-linejoin:round;paint-order:stroke fill markers" id="path914" d="m 34.970869,38.729679 11.945199,36.758812 38.650978,0.0015 L 54.298608,98.209614 66.241024,134.96933 34.970867,112.25204 3.7007081,134.96933 15.643126,98.209613 -15.625311,75.489953 23.025667,75.48849 Z" transform="matrix(1.771561,0,0,1.771561,499.49118,168.16422)"/><path style="fill:red;stroke:none;stroke-width:31.465;stroke-linecap:round;stroke-linejoin:round;paint-order:stroke fill markers" id="path916" d="m 34.970869,38.729679 11.945199,36.758812 38.650978,0.0015 L 54.298608,98.209614 66.241024,134.96933 34.970867,112.25204 3.7007081,134.96933 15.643126,98.209613 -15.625311,75.489953 23.025667,75.48849 Z" transform="matrix(1.771561,0,0,1.771561,499.49118,4.9389524)"/><path style="fill:red;stroke:none;stroke-width:31.465;stroke-linecap:round;stroke-linejoin:round;paint-order:stroke fill markers" id="path918" d="m 34.970869,38.729679 11.945199,36.758812 38.650978,0.0015 L 54.298608,98.209614 66.241024,134.96933 34.970867,112.25204 3.7007081,134.96933 15.643126,98.209613 -15.625311,75.489953 23.025667,75.48849 Z" transform="matrix(1.771561,0,0,1.771561,401.50665,-133.40116)"/></g></g></svg>